<?xml version="1.0" encoding="UTF-8"?>
<svg version="1.1" xmlns="http://www.w3.org/2000/svg" width="1566" height="1492">
<path d="M0 0 C9.56990292 7.83436497 19.65462388 16.9338895 21 30 C19.8125 33.0625 19.8125 33.0625 17 35 C11.79502731 36.62994969 6.5314961 36.00790141 1.20336914 35.30986023 C-9.26038996 33.94480392 -19.6250806 33.65971881 -30.16796875 33.68432617 C-32.99778453 33.68749752 -35.8265613 33.66386706 -38.65625 33.63867188 C-53.64125386 33.58551191 -68.36840374 34.75204595 -82.5625 39.9375 C-83.31225098 40.20054932 -84.06200195 40.46359863 -84.83447266 40.73461914 C-90.0101671 42.57550545 -95.11887973 44.46470463 -100 47 C-101.33998047 47.68255859 -101.33998047 47.68255859 -102.70703125 48.37890625 C-116.26853355 55.75508378 -126.95852508 66.44205743 -137 78 C-133.87804169 78 -131.42166975 76.53434111 -128.5625 75.3125 C-97.46899639 62.49626343 -67.17123107 61.93941549 -36 74 C-34.98679687 74.37898438 -33.97359375 74.75796875 -32.9296875 75.1484375 C-19.28184895 80.50873064 -6.03752698 87.3009429 5 97 C7.71335134 99.12251062 10.43762088 101.23028566 13.1640625 103.3359375 C13.76992187 103.88507813 14.37578125 104.43421875 15 105 C15 105.66 15 106.32 15 107 C15.99 107.33 16.98 107.66 18 108 C19.5078125 109.49609375 19.5078125 109.49609375 21.125 111.4375 C23.09108125 113.77610191 25.05699812 116.05924939 27.17578125 118.26171875 C35.70472565 127.17365548 43 137.23849814 43 150 C43.68811768 150.20044922 44.37623535 150.40089844 45.08520508 150.60742188 C74.00415376 159.0961523 100.34962478 171.52604442 127.20214844 185.09521484 C129.56925616 186.28648334 131.94522345 187.45975306 134.32006836 188.63549805 C153.10711657 197.96147818 171.8526725 207.47603753 190 218 C191.46852831 218.8441358 192.93729057 219.68786467 194.40625 220.53125 C204.77376613 226.49677629 215.07855344 232.5676282 225.3671875 238.66796875 C229.1561548 240.91350266 232.95343787 243.14395529 236.7578125 245.36328125 C245.63632744 250.55335408 254.41106926 255.79773732 262.91015625 261.59204102 C268.44422634 265.35367491 274.16651748 268.71934503 280 272 C280.556875 271.56429688 281.11375 271.12859375 281.6875 270.6796875 C284.12067067 268.78082796 286.55979632 266.88981074 289 265 C289.61101562 264.52175781 290.22203125 264.04351562 290.8515625 263.55078125 C292.8750526 261.99527895 294.9299572 260.49314563 297 259 C298.03382812 258.2471875 299.06765625 257.494375 300.1328125 256.71875 C317.01573992 244.75659254 337.04750668 235.70594654 358 235 C358.65323242 234.96890137 359.30646484 234.93780273 359.97949219 234.90576172 C381.32645563 233.97621123 401.88212571 238.02086884 422 245 C422.69448242 245.23976563 423.38896484 245.47953125 424.10449219 245.7265625 C435.59737209 249.78615327 447.1653156 255.41773516 456 264 C456 264.66 456 265.32 456 266 C456.55300781 266.22171875 457.10601563 266.4434375 457.67578125 266.671875 C474.93613161 276.53493235 485.86499934 302.84543573 490.7578125 320.77734375 C496.68579247 348.53865839 487.15519697 383.01907306 473.203125 407.1015625 C467.88479309 414.8063254 461.15999131 421.53768192 454.67480469 428.26220703 C453.18250182 429.81063441 451.70329281 431.37034903 450.2265625 432.93359375 C444.90776729 438.4453421 439.39833724 442.8171535 433 447 C431.82922363 447.79988414 430.66005462 448.60212417 429.4921875 449.40625 C421.57000663 454.82679773 413.53387839 459.60514225 405 464 C404.79835801 472.77725181 405.27596866 481.19312291 406.5625 489.875 C406.82812744 491.68883179 406.82812744 491.68883179 407.09912109 493.53930664 C408.95012042 505.57544138 411.6258665 517.38964875 414.41821289 529.23558044 C416.5235046 538.18287869 418.52949652 547.15245119 420.53045654 556.12356567 C421.16535959 558.96346664 421.8062666 561.80196118 422.44775391 564.64038086 C423.47434633 569.20556938 424.46941504 573.77667151 425.43911743 578.35427856 C425.7991043 580.05236123 426.16375141 581.74946644 426.53427124 583.44528198 C430.98042793 604.0601397 432.29094878 625.17706154 434.18133545 646.1416626 C438.20223979 690.67834938 444.37385986 732.89422164 461.609375 774.5625 C464.00971754 780.495931 466.08461634 786.53772914 468.16693115 792.58850098 C468.70667882 794.15091804 469.2499563 795.71212196 469.79742432 797.27185059 C474.91360151 811.86247325 478.89594608 826.6111997 482.5625 841.625 C483.13374765 843.9437352 483.7052011 846.26241972 484.27685547 848.58105469 C485.86711939 855.05022641 487.4362891 861.5243678 489 868 C489.37513758 869.54460247 489.75029742 871.08919953 490.12548828 872.63378906 C493.83884365 887.99079687 496.49597139 903.26762103 498 919 C498.07057617 919.71591309 498.14115234 920.43182617 498.21386719 921.16943359 C498.64601152 925.77554339 498.87197295 930.37713173 499 935 C499.02723145 935.88719727 499.05446289 936.77439453 499.08251953 937.68847656 C499.53891575 954.99708773 498.27725384 971.97666652 496.41015625 989.15673828 C496.02700186 992.74698613 495.67994497 996.33869412 495.34375 999.93359375 C493.40199205 1019.75099021 489.0695199 1038.89009437 482.74658203 1057.77050781 C481.86135054 1060.41404409 480.99161032 1063.06251989 480.12109375 1065.7109375 C478.41504177 1070.88488164 476.68448901 1076.05017844 474.94042969 1081.21142578 C474.1328358 1083.60611359 473.33502901 1086.00377895 472.5390625 1088.40234375 C466.21808721 1107.1579872 458.3042094 1125.53228053 449 1143 C448.57138672 1143.8132373 448.14277344 1144.62647461 447.70117188 1145.46435547 C439.07367611 1161.78640153 429.67769991 1177.57929623 419.39306641 1192.91235352 C417.43004279 1195.85413671 415.52762191 1198.83125414 413.625 1201.8125 C407.66188137 1211.10588367 401.58879367 1220.29501847 395.125 1229.25 C394.64820801 1229.91894287 394.17141602 1230.58788574 393.68017578 1231.27709961 C392.50370855 1232.88930326 391.25758925 1234.45024355 390 1236 C389.34 1236 388.68 1236 388 1236 C387.7525 1236.56203125 387.505 1237.1240625 387.25 1237.703125 C385.78725133 1240.39092569 384.03195127 1242.46405482 382 1244.75 C381.29875 1245.54921875 380.5975 1246.3484375 379.875 1247.171875 C378 1249 378 1249 376 1249 C375.67 1249.99 375.34 1250.98 375 1252 C374.34 1252 373.68 1252 373 1252 C372.34 1253.32 371.68 1254.64 371 1256 C370.34 1256 369.68 1256 369 1256 C368.67 1256.99 368.34 1257.98 368 1259 C366.34997172 1260.35386936 364.6825613 1261.68678142 363 1263 C362.34 1263.99 361.68 1264.98 361 1266 C360.34 1266 359.68 1266 359 1266 C358.67 1266.99 358.34 1267.98 358 1269 C357.34 1269 356.68 1269 356 1269 C355.74347656 1269.58104492 355.48695312 1270.16208984 355.22265625 1270.76074219 C353.88502619 1273.21057104 352.40549351 1274.85317393 350.4375 1276.828125 C349.72787109 1277.54178223 349.01824219 1278.25543945 348.28710938 1278.99072266 C347.15499023 1280.10906494 347.15499023 1280.10906494 346 1281.25 C345.22978516 1282.01489746 344.45957031 1282.77979492 343.66601562 1283.56787109 C338.36093486 1288.7848313 332.9866301 1293.57463135 327 1298 C325.58093823 1299.10108682 324.16430793 1300.20531368 322.75 1301.3125 C322.02039062 1301.87839844 321.29078125 1302.44429687 320.5390625 1303.02734375 C317.39555968 1305.46960363 314.25826321 1307.91962041 311.125 1310.375 C310.52002686 1310.8484082 309.91505371 1311.32181641 309.29174805 1311.80957031 C305.65816772 1314.66337679 302.09714611 1317.58623316 298.5625 1320.5625 C292.64676706 1325.43020412 286.32765237 1329.57368845 279.91308594 1333.74267578 C278.07441845 1334.95109047 276.25725768 1336.18555488 274.4453125 1337.43359375 C259.7517591 1347.51708774 244.18765228 1356.25840592 228.12988281 1363.97412109 C225.78660272 1365.10278489 223.45218206 1366.24883088 221.1171875 1367.39453125 C207.70254892 1373.92873397 194.05619044 1379.88431285 180.06835938 1385.09130859 C170.65869415 1388.60892674 161.60028655 1392.76268517 152.5 1397 C143.3303761 1401.26959999 134.20975854 1405.39813514 124.73095703 1408.93994141 C121.22643854 1410.30026854 118.00704635 1411.92243556 114.6875 1413.6875 C90.4982626 1426.10486203 64.82971304 1434.4803826 38.38769531 1440.56713867 C37.2787793 1440.82857666 36.16986328 1441.09001465 35.02734375 1441.359375 C33.56929321 1441.69146973 33.56929321 1441.69146973 32.08178711 1442.03027344 C29.52601099 1442.83448343 27.47905664 1443.72162841 25.12231445 1444.9453125 C21.18555101 1446.98039852 17.2738521 1448.3215427 13.015625 1449.515625 C12.25931793 1449.73247452 11.50301086 1449.94932404 10.7237854 1450.17274475 C8.23597069 1450.87825361 5.7439683 1451.56657698 3.25 1452.25 C2.38119202 1452.48955414 1.51238403 1452.72910828 0.61724854 1452.97592163 C-19.48793468 1458.47293746 -39.82381149 1462.17837196 -60.3737793 1465.5625 C-63.74337436 1466.12383814 -67.10821239 1466.71097003 -70.47332764 1467.29846191 C-159.05268631 1482.6994836 -254.61020826 1479.17170126 -389.73974609 1459.88037109 C-394.67525984 1459.0529823 -399.61271611 1458.23778202 -404.55078125 1457.42578125 C-412.64447808 1456.09312424 -420.73402187 1454.7367987 -428.82165527 1453.36785889 C-431.03085131 1452.99479011 -433.24047961 1452.62437181 -435.45019531 1452.25439453 C-453.81807197 1449.17225735 -471.95812746 1445.67532047 -490 1441 C-491.81081055 1440.53158691 -491.81081055 1440.53158691 -493.65820312 1440.05371094 C-498.90948757 1438.69369474 -504.16062293 1437.33319505 -509.40942383 1435.96362305 C-517.69970521 1433.80760779 -526.01650704 1431.81345677 -534.375 1429.9375 C-543.82289926 1427.81116462 -553.12963997 1425.35321822 -562.43774414 1422.68432617 C-572.75965324 1419.73997455 -583.16132757 1417.14691043 -593.58203125 1414.578125 C-594.65332275 1414.31394775 -595.72461426 1414.04977051 -596.82836914 1413.77758789 C-598.92518512 1413.26351208 -601.02332169 1412.75479001 -603.12280273 1412.25170898 C-609.68406489 1410.65933284 -616.05616725 1408.7633556 -622.4375 1406.5625 C-628.16122915 1404.61176895 -633.86933327 1402.71639511 -639.6875 1401.0625 C-645.82059968 1399.21700178 -651.54330555 1396.63521914 -657.36157227 1393.98803711 C-662.58118617 1391.61378619 -667.83777936 1389.47908872 -673.2109375 1387.47265625 C-678.44760334 1385.47696672 -683.58777711 1383.24143037 -688.75 1381.0625 C-695.66849158 1378.14925495 -702.57649992 1375.34514788 -709.6875 1372.9375 C-731.45116275 1365.51317693 -752.92464537 1355.53978729 -772.7265625 1343.875 C-776.19477398 1341.88843495 -779.72883749 1340.0777772 -783.3125 1338.3125 C-801.98335169 1329.08453728 -820.27531942 1319.3527262 -838.16601562 1308.68457031 C-840.90965871 1307.05370046 -843.66396572 1305.44253549 -846.421875 1303.8359375 C-856.16696043 1298.12572668 -865.41123415 1292.06279198 -874.390625 1285.21240234 C-876.74235582 1283.44075561 -879.15612807 1281.75885231 -881.5625 1280.0625 C-888.38197504 1275.11583601 -894.66642924 1269.54414578 -901 1264 C-901.76441406 1263.33742188 -902.52882813 1262.67484375 -903.31640625 1261.9921875 C-905.22024987 1260.33834355 -907.11104017 1258.67081997 -909 1257 C-909.70785645 1256.37625488 -910.41571289 1255.75250977 -911.14501953 1255.10986328 C-917.33637146 1249.60174796 -923.29646242 1243.88982342 -929.15380859 1238.03149414 C-930.65316421 1236.53437785 -932.16042965 1235.04551126 -933.66796875 1233.55664062 C-934.62548564 1232.60204938 -935.58253573 1231.64698962 -936.5390625 1230.69140625 C-937.39709473 1229.83748291 -938.25512695 1228.98355957 -939.13916016 1228.10375977 C-941 1226 -941 1226 -941 1224 C-941.99 1223.67 -942.98 1223.34 -944 1223 C-945.3671875 1221.64453125 -945.3671875 1221.64453125 -946.875 1219.8125 C-949.68266625 1216.4895026 -952.58582622 1213.29793973 -955.57763672 1210.14257812 C-962.07959455 1203.27043584 -967.99652939 1196.10943425 -973.75195312 1188.60791016 C-975.62114172 1186.19975755 -977.55904828 1183.85047877 -979.5 1181.5 C-983.3852791 1176.78216109 -987.16819784 1171.99175371 -990.92504883 1167.17163086 C-993.60930282 1163.73654962 -996.36189604 1160.38325741 -999.1875 1157.0625 C-1016.31450171 1136.20150332 -1028.86707268 1114.28616764 -1038 1089 C-1038.30115723 1088.16968262 -1038.60231445 1087.33936523 -1038.91259766 1086.48388672 C-1063.4589902 1017.90783962 -1072.34316451 948.15436844 -1061.1875 876.125 C-1061.02114044 875.04548065 -1060.85478088 873.9659613 -1060.68338013 872.85372925 C-1054.43900199 832.73505888 -1054.43900199 832.73505888 -1047.5625 817.5 C-1047.14419922 816.53553955 -1046.72589844 815.5710791 -1046.29492188 814.57739258 C-1044.89046188 811.37201156 -1043.45016255 808.18495385 -1042 805 C-1041.44507899 803.7739578 -1040.8902311 802.54788251 -1040.33544922 801.32177734 C-1038.57302356 797.43623257 -1036.7909242 793.55998219 -1035 789.6875 C-1034.18317749 787.92019531 -1034.18317749 787.92019531 -1033.34985352 786.1171875 C-1029.35968397 777.61295186 -1025.04692928 769.30629993 -1020.64550781 761.00854492 C-1016.59056731 753.35520588 -1012.65620511 745.63972508 -1008.71289062 737.9284668 C-1007.36988786 735.30250428 -1006.0249034 732.67756373 -1004.6796875 730.05273438 C-1003.79406448 728.32302231 -1002.90864566 726.59320567 -1002.0234375 724.86328125 C-1001.59319778 724.02258087 -1001.16295807 723.18188049 -1000.71968079 722.31570435 C-998.36757235 717.70973907 -996.04799396 713.08960842 -993.75907898 708.45195007 C-990.30240929 701.45732977 -986.61259104 694.6709606 -982.5625 688 C-981.43372955 686.11267621 -980.30613172 684.22465062 -979.1796875 682.3359375 C-978.63795898 681.4294043 -978.09623047 680.52287109 -977.53808594 679.58886719 C-961.95268422 653.35591484 -949.52668625 625.46073563 -937.53125 597.4453125 C-934.77081744 591.0091987 -931.91483898 584.65318174 -928.8125 578.375 C-923.59555252 567.70365732 -919.9981927 556.33799513 -916.09716797 545.13964844 C-912.05521805 533.57323189 -907.47664012 522.30496626 -902.61328125 511.0625 C-899.57751885 504.03751744 -896.59264735 496.99145442 -893.625 489.9375 C-893.34619995 489.27559662 -893.0673999 488.61369324 -892.78015137 487.93173218 C-888.92324361 478.76206314 -885.25065109 469.53851606 -881.6875 460.25 C-876.81383942 447.57903309 -871.23564414 435.27824186 -865.48120117 422.98730469 C-861.95357036 415.4321053 -858.64014643 407.924672 -856 400 C-862.24698425 393.54478294 -868.94921614 387.56290191 -876 382 C-883.05529467 376.43353917 -889.72989185 370.43957053 -896 364 C-896.495 363.55011719 -896.99 363.10023438 -897.5 362.63671875 C-911.13213619 349.91970281 -920.6087908 331.97651265 -925 314 C-925.18046875 313.2786084 -925.3609375 312.5572168 -925.546875 311.81396484 C-932.57719148 283.05735783 -928.48327264 258.20834119 -914.0625 232.5 C-910.6743466 227.13465022 -906.39358037 222.55334693 -902 218 C-901.29101562 217.24460938 -900.58203125 216.48921875 -899.8515625 215.7109375 C-898 214 -898 214 -896 214 C-896 213.34 -896 212.68 -896 212 C-868.06849865 188.84568917 -830.77181607 179.71216145 -795 182 C-788.21893052 182.79849773 -781.60751527 184.30880716 -775 186 C-774.25911133 186.18723633 -773.51822266 186.37447266 -772.75488281 186.56738281 C-750.36072935 192.36363442 -728.38511402 202.11163477 -710.62890625 217.1015625 C-707.87892668 219.08743185 -706.37534802 219.89804195 -703 220 C-700.54315233 219.10571616 -700.54315233 219.10571616 -698.125 217.5625 C-697.16464844 217.005625 -696.20429687 216.44875 -695.21484375 215.875 C-694.15394531 215.25625 -693.09304688 214.6375 -692 214 C-689.57449849 212.66478686 -687.13224792 211.36206825 -684.6875 210.0625 C-684.04498291 209.71856201 -683.40246582 209.37462402 -682.74047852 209.02026367 C-678.72234003 206.87923379 -674.66291533 204.85537091 -670.5625 202.875 C-664.00162242 199.6426398 -657.77919389 195.93300155 -651.5 192.1875 C-641.07278448 185.98989008 -630.41493542 180.83130917 -619.29077148 176.02294922 C-617.18926966 175.0845188 -615.14457606 174.08230735 -613.09765625 173.03125 C-607.99770957 170.44380507 -602.72934181 168.28618724 -597.4375 166.125 C-596.2820166 165.65304199 -595.1265332 165.18108398 -593.93603516 164.69482422 C-582.86282845 160.21812894 -571.6254633 156.22094096 -560.36737061 152.23779297 C-548.66716247 148.09564379 -537.08360351 143.74110552 -525.5625 139.125 C-504.1151805 130.55912761 -482.43189996 123.52938558 -460 118 C-458.96568848 117.73977051 -457.93137695 117.47954102 -456.86572266 117.21142578 C-411.51196582 106.04470064 -363.472704 104.26304637 -317 101 C-315.55481995 100.89848633 -315.55481995 100.89848633 -314.08044434 100.79492188 C-286.70311352 98.90158993 -259.28103841 98.60331625 -231.84919739 98.29627991 C-228.00169458 98.24691735 -224.15498305 98.17706742 -220.30786133 98.10424805 C-215.52654104 98.0164699 -210.76045964 98.02445963 -205.97924805 98.10864258 C-195.5867932 98.55639974 -195.5867932 98.55639974 -186.13134766 95.11743164 C-184.09848831 92.41734872 -182.97650088 89.98116906 -181.8125 86.8125 C-180.83858094 84.70520328 -179.86060413 82.59977792 -178.87890625 80.49609375 C-178.41242676 79.4169873 -177.94594727 78.33788086 -177.46533203 77.22607422 C-175.11249641 72.04607257 -172.19374606 67.23601809 -169.25 62.375 C-168.70545166 61.45710693 -168.16090332 60.53921387 -167.59985352 59.59350586 C-163.37191982 52.49189344 -158.88381205 45.67212241 -154 39 C-152.92878906 37.50146484 -152.92878906 37.50146484 -151.8359375 35.97265625 C-135.3802329 13.38240453 -113.8685493 -3.40434122 -87 -12 C-86.04287109 -12.3088916 -86.04287109 -12.3088916 -85.06640625 -12.62402344 C-57.53885595 -21.11570928 -23.48208174 -17.44928676 0 0 Z M-133.38037109 30.12158203 C-143.16325963 41.46760923 -151.35196519 54.15180364 -159 67 C-159.6180249 68.03205566 -159.6180249 68.03205566 -160.24853516 69.08496094 C-164.88795905 76.84525738 -169.39723563 84.67274726 -173.8125 92.5625 C-174.89497807 94.48527697 -175.97851649 96.40744845 -177.06298828 98.32910156 C-177.88461399 99.79424131 -178.6915743 101.26758527 -179.49609375 102.7421875 C-182.3859233 107.80163986 -182.3859233 107.80163986 -185.13235474 108.688797 C-188.80763008 109.08764575 -192.44207697 109.08948817 -196.13232422 109.04174805 C-197.75517978 109.03144164 -199.37804494 109.02256432 -201.00091553 109.01498413 C-201.83134117 109.01086391 -202.66176682 109.0067437 -203.51735687 109.00249863 C-210.63993336 108.99533019 -217.76216156 109.18227328 -224.8828125 109.33203125 C-225.74790373 109.34979111 -226.61299496 109.36755096 -227.50430107 109.385849 C-283.80729383 110.49417604 -283.80729383 110.49417604 -340 114 C-341.04130066 114.08743469 -342.08260132 114.17486938 -343.15545654 114.26495361 C-400.90644456 119.14301508 -458.04973934 124.51312405 -512.43310547 145.9921875 C-516.06300596 147.41735672 -519.71803775 148.77121629 -523.375 150.125 C-528.14978472 151.90678292 -532.90270178 153.73900925 -537.64672852 155.60107422 C-544.89753103 158.44637475 -552.17517478 161.16150432 -559.52832031 163.73046875 C-571.70711147 167.98713362 -583.82383326 172.32467534 -595.62890625 177.54296875 C-598.29612695 178.69577677 -600.96721448 179.77733514 -603.671875 180.8359375 C-619.04869249 186.95927026 -633.78160908 194.67264794 -648.10864258 202.92260742 C-659.21856782 209.31658354 -670.53586846 215.30699743 -681.85693359 221.31542969 C-684.66684623 222.82144159 -687.45643233 224.35701272 -690.23828125 225.9140625 C-691.00414551 226.33719727 -691.77000977 226.76033203 -692.55908203 227.19628906 C-693.90924899 227.94400713 -695.25352199 228.70255162 -696.58935547 229.47558594 C-701.34336785 232.08183342 -705.6838813 232.71641301 -711 233 C-711.33 232.29875 -711.66 231.5975 -712 230.875 C-714.75349666 226.91684856 -718.05650956 224.72005817 -722 222 C-723.0415625 221.24460938 -724.083125 220.48921875 -725.15625 219.7109375 C-756.07550387 197.72391253 -795.21147249 189.13926768 -832.44042969 195.41113281 C-837.68711443 196.38852018 -842.8432325 197.63100101 -848 199 C-849.2375 199.31324219 -850.475 199.62648437 -851.75 199.94921875 C-876.12727031 207.01547491 -896.84523885 223.9678961 -909 246 C-913.90012386 255.99017501 -917.28342066 266.85086848 -918 278 C-918.06445312 278.77472656 -918.12890625 279.54945313 -918.1953125 280.34765625 C-919.51204578 310.85197732 -906.3010434 336.71694663 -886.23828125 358.66796875 C-883.01326515 362.02806406 -879.57800213 365.0244166 -876 368 C-874.40296698 369.34782452 -872.80841242 370.69854993 -871.21386719 372.04931641 C-870.06977117 373.01772361 -868.92458456 373.98484381 -867.77832031 374.95068359 C-864.81517995 377.44916919 -861.88666071 379.97551381 -859 382.5625 C-856.63446445 384.66858972 -854.19992128 386.61903417 -851.66015625 388.5078125 C-851.06783203 388.9505249 -850.47550781 389.3932373 -849.86523438 389.84936523 C-848.6847595 390.72560884 -847.4974363 391.59271841 -846.30273438 392.44946289 C-844.07024423 394.10558036 -842.2468417 395.58805762 -840.80859375 397.98828125 C-841.1215938 401.27797569 -843.69140214 402.76427037 -846 405 C-847.4582781 407.88815529 -847.4582781 407.88815529 -848.5625 411.1875 C-851.29540267 418.5351148 -854.54360881 425.5938632 -857.875 432.6875 C-862.58454643 442.777329 -866.90313969 452.93721341 -870.94433594 463.30908203 C-872.9860846 468.51355791 -875.08474984 473.69492719 -877.1875 478.875 C-877.64705078 480.00728027 -878.10660156 481.13956055 -878.58007812 482.30615234 C-881.85004051 490.30995561 -885.25974003 498.24390934 -888.72998047 506.1619873 C-896.46928975 523.82962752 -903.46217756 541.71197722 -909.84545898 559.91601562 C-913.71500529 570.94359501 -917.83611993 581.55637837 -923.03662109 592.01806641 C-924.76490118 595.57361069 -926.34568804 599.19431846 -927.9375 602.8125 C-928.60263411 604.31911219 -929.26800102 605.82562162 -929.93359375 607.33203125 C-930.26987793 608.09338379 -930.60616211 608.85473633 -930.95263672 609.63916016 C-933.15923946 614.61301762 -935.40297013 619.57025942 -937.64208984 624.52954102 C-939.46854572 628.57955963 -941.28366303 632.63365269 -943.06640625 636.703125 C-952.30563758 657.78504373 -962.87565317 678.27951234 -975.1875 697.75 C-982.19323557 708.89617029 -987.93154047 720.83545021 -993.796875 732.609375 C-997.65833021 740.35836857 -1001.62757117 748.0489859 -1005.6105957 755.73599243 C-1012.86821167 769.75884325 -1019.96830297 783.83509841 -1026.66064453 798.13867188 C-1027.5655924 800.0719546 -1028.47555701 802.00289578 -1029.39013672 803.93164062 C-1041.39848376 829.27555083 -1046.4655559 854.38608528 -1050.6875 882 C-1050.7901416 882.66780487 -1050.8927832 883.33560974 -1050.99853516 884.02365112 C-1051.70886353 888.67700482 -1052.37156032 893.33504926 -1053 898 C-1053.09569275 898.6987323 -1053.1913855 899.3974646 -1053.28997803 900.11737061 C-1054.92355374 912.3091128 -1055.32663401 924.33318272 -1055.25 936.625 C-1055.24623352 937.54774719 -1055.24246704 938.47049438 -1055.23858643 939.42120361 C-1055.07240553 974.25377283 -1050.38840529 1008.4240702 -1041 1042 C-1040.68192383 1043.16740723 -1040.36384766 1044.33481445 -1040.03613281 1045.53759766 C-1031.99654335 1074.95883032 -1023.43340175 1105.23549998 -1005 1130 C-1003.87102558 1131.62224128 -1002.74611916 1133.24732011 -1001.625 1134.875 C-995.46307204 1143.65232406 -989.00807023 1152.08742997 -982.01660156 1160.21411133 C-979.17652752 1163.53862767 -976.5331269 1166.93082937 -974 1170.5 C-966.79112211 1180.62781005 -958.35916358 1189.81984714 -950 1199 C-948.45703744 1200.70716297 -946.91537206 1202.41549925 -945.375 1204.125 C-944.25931641 1205.3625 -944.25931641 1205.3625 -943.12109375 1206.625 C-941.20304826 1208.77264578 -939.31661925 1210.94334681 -937.4375 1213.125 C-934.3735209 1216.65213874 -931.10047324 1219.92169074 -927.76953125 1223.1953125 C-926 1225 -926 1225 -924 1227.5625 C-921.69049881 1230.37720457 -919.10426026 1232.55632924 -916.33984375 1234.9140625 C-913.61875403 1237.33987537 -911.05710404 1239.90461201 -908.5 1242.5 C-904.16325376 1246.88318768 -899.71012708 1251.02218949 -895 1255 C-893.53433594 1256.26457031 -893.53433594 1256.26457031 -892.0390625 1257.5546875 C-862.72331003 1282.76464186 -828.97249227 1301.83598089 -795 1320 C-794.18192871 1320.43795898 -793.36385742 1320.87591797 -792.52099609 1321.32714844 C-781.22847669 1327.35804317 -769.82093839 1333.14233915 -758.35302734 1338.83154297 C-754.77318527 1340.60920682 -751.19915236 1342.39843203 -747.625 1344.1875 C-745.83775909 1345.08112046 -744.05031614 1345.97435334 -742.26000977 1346.86181641 C-740.52021149 1347.73801167 -738.79083377 1348.63492044 -737.06616211 1349.54052734 C-728.20515474 1354.12135341 -719.15455394 1357.81079715 -709.81878662 1361.30999756 C-705.50704034 1362.9271518 -701.2052009 1364.57030986 -696.90234375 1366.2109375 C-696.0497699 1366.53542877 -695.19719604 1366.85992004 -694.31878662 1367.19424438 C-678.05610125 1373.39626885 -662.00129885 1380.09998348 -646.02319336 1386.99829102 C-639.41351098 1389.84476807 -632.78133749 1392.58328974 -626 1395 C-624.70908447 1395.4638208 -624.70908447 1395.4638208 -623.39208984 1395.93701172 C-616.2492119 1398.42346394 -609.18068363 1400.1318937 -601.75 1401.5 C-589.6566228 1403.83051312 -577.79743461 1406.59503253 -565.96769714 1410.02482605 C-565.07085709 1410.28475845 -564.17401703 1410.54469086 -563.25 1410.8125 C-562.42442093 1411.05243179 -561.59884186 1411.29236359 -560.74824524 1411.53956604 C-553.5411642 1413.6102914 -546.29223257 1415.46077548 -539.01171875 1417.25390625 C-530.64309381 1419.32716389 -522.28655252 1421.43515386 -513.94992065 1423.63366699 C-473.96830415 1434.15748478 -433.76899173 1441.45275335 -392.9544878 1447.8948431 C-387.31079919 1448.78745379 -381.67091339 1449.70208749 -376.03222656 1450.62573242 C-374.79264568 1450.82843545 -374.79264568 1450.82843545 -373.52802277 1451.0352335 C-367.04553492 1452.09544921 -367.04553492 1452.09544921 -363.91940308 1452.61099434 C-303.98153872 1462.49147651 -243.23130923 1464.04689199 -182.60125732 1464.18122482 C-180.41546411 1464.18738594 -178.22971897 1464.1972654 -176.04394531 1464.20828247 C-106.54278024 1464.53655771 -34.20785274 1454.67379485 31.57226562 1431.83544922 C38.17671229 1429.56268006 44.86198804 1427.5746288 51.6015625 1425.74609375 C75.04491102 1419.34020607 96.9010355 1409.97498561 118.90304565 1399.80567932 C128.81993837 1395.22685205 138.81598894 1390.82587841 148.80761719 1386.41308594 C151.99200279 1385.00353991 155.17209991 1383.58467345 158.3515625 1382.1640625 C168.8046417 1377.50861203 179.29638283 1373.02231507 189.9375 1368.8125 C218.23842133 1357.61114586 244.40828877 1343.51136979 270 1327 C271.05832031 1326.32453125 272.11664062 1325.6490625 273.20703125 1324.953125 C280.53243062 1320.16470802 287.37298104 1314.9055171 294.19580078 1309.44091797 C297.22019445 1307.02549558 300.2673001 1304.63909512 303.3125 1302.25 C303.90200439 1301.7861792 304.49150879 1301.3223584 305.09887695 1300.84448242 C308.23794025 1298.37551142 311.39267101 1295.92943098 314.5625 1293.5 C318.95130658 1290.09929246 323.1754451 1286.51108209 327.39672852 1282.90625 C329.71017418 1280.93112309 332.01514926 1278.9886863 334.453125 1277.16796875 C336.64222819 1275.30454503 338.3459375 1273.50392864 340.19873047 1271.32666016 C343.75050508 1267.23111393 347.50083964 1263.40225506 351.3671875 1259.60546875 C352.76185759 1258.22344739 354.15638437 1256.84128139 355.55078125 1255.45898438 C357.70976285 1253.324709 359.87033286 1251.19209483 362.03369141 1249.06225586 C370.17333916 1241.04042612 378.03643515 1233.08575579 385 1224 C385.53093262 1223.32396729 386.06186523 1222.64793457 386.60888672 1221.95141602 C395.09326349 1211.08636241 402.26540896 1199.09814866 409.61523438 1187.45727539 C412.45536758 1182.96537648 415.31709421 1178.49714932 418.29296875 1174.09375 C427.35547563 1160.63409113 434.79740333 1146.5287882 442 1132 C442.51369141 1130.96842773 443.02738281 1129.93685547 443.55664062 1128.87402344 C445.00926371 1125.94307556 446.44637185 1123.00521028 447.875 1120.0625 C448.2786377 1119.2377417 448.68227539 1118.4129834 449.09814453 1117.56323242 C456.41554566 1102.23104127 462.12812152 1086.2667374 467.31030273 1070.10839844 C468.19025038 1067.36642965 469.08162201 1064.62837155 469.97460938 1061.890625 C472.74182335 1053.36231561 475.40856902 1044.81368022 477.828125 1036.1796875 C478.02734055 1035.47266693 478.22655609 1034.76564636 478.43180847 1034.03720093 C492.94044552 981.16974513 490.54579617 921.2410714 477.63781738 868.60992432 C476.92575932 865.69620999 476.22184695 862.78058842 475.51855469 859.86474609 C474.14139617 854.16224559 472.74959475 848.46346748 471.34857178 842.76678467 C470.7914901 840.49906998 470.23692352 838.23073566 469.68511963 835.96173096 C466.19486399 821.6518688 462.13080871 807.8043351 457 794 C456.37822017 792.2986872 455.7576327 790.5969382 455.13818359 788.89477539 C452.93408187 782.84926673 450.70809027 776.81189017 448.47680664 770.77636719 C436.18287891 737.49608839 436.18287891 737.49608839 432.8125 721.5625 C432.57853516 720.51513672 432.34457031 719.46777344 432.10351562 718.38867188 C428.45158912 701.59785826 426.41387603 684.69249397 424.80911255 667.6000061 C424.49227485 664.23034063 424.16678446 660.86159543 423.83959961 657.49291992 C422.911826 647.89555017 422.00446293 638.29795608 421.22265625 628.6875 C418.85154044 599.83257801 412.66971381 572.05581493 406.24609375 543.89453125 C393.30285051 487.13332503 393.30285051 487.13332503 393 465 C392.94328125 464.10667969 392.8865625 463.21335937 392.828125 462.29296875 C392.9633928 459.45717597 393.25706261 458.26764367 395 456 C399.45102845 453.20604118 404.10516451 451.11075964 408.89892578 448.97949219 C418.7264598 444.39802966 427.52415901 437.67831359 436 431 C436.67933594 430.46503906 437.35867188 429.93007813 438.05859375 429.37890625 C441.87752768 426.24040598 445.06848658 422.75486698 448.2578125 418.984375 C449.88070718 417.13587612 451.57616755 415.48698919 453.375 413.8125 C472.74919149 394.56892103 480.90592385 362.40173104 481.109375 335.7421875 C480.7745959 310.8254041 466.51031852 290.80494428 449.69140625 273.64453125 C428.23491092 253.17454145 393.46985256 245.66205302 364.56420898 245.90844727 C338.57507895 246.83636536 317.08441164 257.00253259 297 273 C283.29322895 283.78154552 283.29322895 283.78154552 277.2265625 283.54296875 C272.47271683 282.38369761 268.82660758 278.91029643 265 276 C261.38559614 273.58437342 257.68802449 271.30129325 254 269 C253.30600098 268.56478027 252.61200195 268.12956055 251.89697266 267.68115234 C239.89934764 260.16270815 227.78511112 252.8527988 215.58764648 245.66455078 C205.828685 239.91302665 205.828685 239.91302665 201.93359375 237.51171875 C186.12726352 227.78615519 169.53514024 219.11076505 152.88305664 210.92553711 C147.03766807 208.04743747 141.27044761 205.02505695 135.5 202 C127.75049505 197.94175292 119.98173367 193.93675562 112.140625 190.05859375 C109.01396519 188.51143622 105.9036834 186.93429136 102.796875 185.34765625 C85.94872465 176.77173588 69.17376462 169.26398689 51 164 C50.09765625 163.69191406 49.1953125 163.38382813 48.265625 163.06640625 C41.21510702 160.77827231 34.26666019 160.57804809 26.90332031 160.55371094 C20.59981057 160.42934769 20.59981057 160.42934769 17.4296875 158.16015625 C15.50460212 155.251489 15.48034258 153.41489161 16 150 C19.28491373 147.81005752 20.83095639 147.64722661 24.6875 147.375 C26.17830078 147.26285156 26.17830078 147.26285156 27.69921875 147.1484375 C28.45847656 147.09945312 29.21773437 147.05046875 30 147 C30.89753081 144.81962724 30.89753081 144.81962724 31 142 C29.69301283 139.61614981 28.43296655 137.64568689 26.8125 135.5 C26.41224609 134.94441406 26.01199219 134.38882813 25.59960938 133.81640625 C21.72955735 128.48489212 17.70797416 123.60335252 13 119 C12.38511719 118.35160156 11.77023437 117.70320313 11.13671875 117.03515625 C-4.20995175 101.0712522 -22.52990221 90.92819169 -43 83 C-44.05832031 82.5771875 -45.11664062 82.154375 -46.20703125 81.71875 C-74.0200768 71.4493178 -103.98628174 76.51566953 -130.45825195 88.27246094 C-137.09448541 91.36310432 -142.81921938 95.34082649 -148.4296875 100.03125 C-149.21601562 100.6809375 -150.00234375 101.330625 -150.8125 102 C-151.49957031 102.598125 -152.18664062 103.19625 -152.89453125 103.8125 C-155 105 -155 105 -157.64453125 104.82421875 C-160 104 -160 104 -161.875 101.8125 C-163.29589227 98.26026932 -162.95955808 96.6909513 -162 93 C-160.63426123 90.68654732 -159.28747524 88.63462497 -157.6875 86.5 C-157.03177002 85.60293335 -157.03177002 85.60293335 -156.36279297 84.68774414 C-151.65569697 78.35126876 -146.49617419 72.40828409 -141.28125 66.48901367 C-140.09839173 65.11434664 -138.97199566 63.69163084 -137.8515625 62.265625 C-136.24378239 60.29829913 -134.75872376 58.83933296 -132.75 57.3125 C-131.38875 56.1678125 -131.38875 56.1678125 -130 55 C-130 54.34 -130 53.68 -130 53 C-129.40952881 52.72164307 -128.81905762 52.44328613 -128.21069336 52.15649414 C-126.14940191 51.07815758 -124.4583502 49.92322392 -122.62890625 48.49609375 C-84.78994465 19.84194184 -38.27677663 19.5941853 7 24 C-1.14046959 10.43255068 -15.12463541 2.10374309 -30.1015625 -2.29296875 C-67.67469905 -11.45838346 -107.42545639 1.57687665 -133.38037109 30.12158203 Z " fill="#000000" transform="translate(1067,16)"/>
</svg>
