<?xml version="1.0" standalone="no"?>
<!DOCTYPE svg PUBLIC "-//W3C//DTD SVG 20010904//EN"
 "http://www.w3.org/TR/2001/REC-SVG-20010904/DTD/svg10.dtd">
<svg version="1.0" xmlns="http://www.w3.org/2000/svg"
 width="2560.000000pt" height="1762.000000pt" viewBox="0 0 2560.000000 1762.000000"
 preserveAspectRatio="xMidYMid meet">

<g transform="translate(0.000000,1762.000000) scale(0.100000,-0.100000)"
fill="#000000" stroke="none">
<path d="M14630 17401 c-103 -23 -186 -54 -305 -114 -272 -137 -425 -314 -716
-826 -49 -86 -92 -162 -96 -169 -6 -10 -124 -15 -523 -22 -283 -5 -617 -16
-742 -25 -484 -32 -1022 -87 -1241 -126 -269 -48 -593 -144 -907 -269 -80 -31
-228 -87 -330 -124 -389 -141 -661 -261 -901 -398 -180 -104 -510 -278 -525
-278 -7 0 -53 29 -101 64 -207 150 -404 236 -694 303 -98 22 -339 22 -469 0
-416 -71 -729 -279 -869 -577 -111 -238 -126 -433 -55 -709 68 -262 198 -435
537 -720 136 -114 157 -136 151 -154 -3 -12 -49 -116 -101 -232 -52 -115 -128
-293 -168 -395 -40 -102 -105 -259 -145 -350 -99 -227 -141 -334 -220 -555
-37 -104 -90 -237 -118 -295 -27 -58 -69 -150 -92 -205 -143 -335 -270 -590
-425 -850 -88 -147 -498 -954 -590 -1159 -86 -194 -109 -263 -145 -444 -65
-328 -92 -559 -97 -818 -6 -289 6 -447 52 -710 51 -285 137 -603 242 -889 100
-271 190 -417 512 -820 281 -353 545 -635 811 -869 215 -189 379 -306 650
-466 334 -196 964 -519 1160 -595 69 -26 289 -114 490 -195 411 -166 562 -218
735 -255 66 -14 225 -55 352 -91 128 -36 291 -78 362 -94 72 -16 226 -54 343
-84 235 -61 350 -85 538 -115 69 -11 298 -49 510 -85 436 -73 632 -98 940
-121 637 -46 1489 -48 1880 -4 121 13 537 80 745 120 169 32 525 129 586 159
19 10 118 39 220 65 210 53 388 117 604 215 300 137 674 300 835 365 91 36
225 95 298 131 73 35 136 64 141 64 5 0 19 8 32 19 13 10 67 42 119 71 134 74
385 243 515 346 61 48 164 130 230 183 111 89 514 486 630 621 60 71 147 195
275 395 303 472 438 746 595 1205 127 373 151 476 185 785 38 350 43 459 30
666 -13 226 -36 361 -116 699 -108 455 -124 506 -284 934 -161 433 -189 583
-265 1426 -23 255 -35 315 -189 1000 -49 217 -76 377 -83 501 l-6 105 54 27
c75 36 256 156 337 221 70 57 202 196 266 280 127 168 241 572 222 791 -12
145 -79 318 -177 460 -77 112 -239 262 -337 313 -251 131 -594 201 -839 173
-234 -27 -415 -109 -658 -296 -44 -34 -85 -65 -92 -69 -7 -4 -37 10 -70 32
-136 91 -319 205 -468 292 -88 51 -176 103 -195 115 -194 122 -1120 596 -1315
673 -90 36 -260 91 -326 106 -24 5 -25 8 -22 58 4 48 1 59 -34 115 -89 146
-271 329 -423 428 -176 115 -408 209 -594 241 -194 34 -494 -20 -708 -127 -43
-22 -78 -37 -78 -34 0 9 131 158 174 198 72 68 179 144 252 181 107 54 296
113 406 126 94 12 447 8 661 -6 76 -5 91 -4 108 12 25 23 24 55 -5 112 -75
148 -252 275 -461 332 -115 32 -346 37 -465 11z m430 -92 c109 -27 248 -99
319 -165 58 -53 108 -120 99 -130 -3 -2 -40 1 -84 8 -45 7 -191 12 -339 12
-289 1 -342 -6 -523 -68 -185 -64 -262 -107 -411 -230 -112 -92 -351 -386
-351 -431 0 -31 30 -75 51 -75 11 0 42 19 70 43 208 179 601 284 874 232 164
-31 413 -139 565 -246 133 -93 346 -324 379 -411 16 -42 -6 -61 -78 -66 -78
-6 -94 -25 -56 -70 24 -28 29 -30 127 -35 110 -5 210 -31 396 -103 129 -49
1013 -495 1222 -616 280 -162 515 -304 678 -410 114 -74 165 -102 188 -102 24
0 59 20 145 86 201 151 324 218 482 260 121 33 367 33 522 0 123 -27 295 -82
370 -119 228 -114 431 -374 491 -630 33 -138 6 -358 -72 -588 -54 -163 -104
-237 -268 -406 -110 -114 -282 -237 -436 -314 -41 -21 -78 -43 -82 -49 -29
-43 29 -470 102 -756 26 -100 115 -512 134 -620 17 -93 28 -194 51 -455 61
-703 93 -854 288 -1370 110 -294 130 -359 213 -695 135 -549 148 -632 148
-980 1 -218 -3 -289 -27 -492 -34 -290 -61 -404 -178 -752 -154 -458 -284
-725 -563 -1160 -103 -159 -212 -323 -244 -365 -61 -81 -452 -486 -567 -588
-135 -119 -442 -355 -595 -457 -281 -187 -504 -302 -893 -461 -171 -69 -422
-179 -757 -332 -198 -90 -369 -153 -535 -197 -77 -20 -205 -59 -285 -86 -297
-100 -547 -156 -1045 -234 -442 -69 -698 -82 -1350 -67 -654 15 -1042 43
-1435 105 -246 39 -990 165 -1045 177 -125 28 -975 242 -1105 279 -80 22 -201
52 -270 65 -169 34 -194 43 -611 213 -200 82 -434 175 -519 207 -232 88 -879
419 -1240 636 -321 191 -569 386 -849 669 -360 363 -834 957 -954 1195 -76
152 -228 620 -287 883 -79 358 -114 757 -91 1042 22 279 108 780 155 904 81
214 507 1068 671 1346 159 269 222 395 410 820 40 91 94 209 119 263 25 53 78
188 117 300 39 111 129 337 199 502 70 165 151 361 180 435 29 74 89 216 134
315 45 99 88 196 96 215 8 19 24 45 37 57 30 28 29 40 -4 68 -16 13 -116 98
-224 188 -250 211 -352 330 -429 500 -75 167 -111 443 -76 591 67 282 229 483
504 621 233 116 571 164 815 114 127 -25 297 -80 402 -129 96 -44 283 -167
336 -221 38 -38 38 -38 76 -25 21 7 67 29 103 48 36 20 135 73 220 118 85 46
202 110 260 143 221 127 490 245 880 386 91 32 241 89 333 125 459 181 762
256 1257 311 641 71 1036 92 2010 108 l145 2 28 50 c322 567 462 760 639 882
163 113 364 190 533 207 73 7 229 -6 305 -25z"/>
</g>
</svg>
